<svg width="30" height="30" viewBox="0 0 30 30" fill="none" xmlns="http://www.w3.org/2000/svg">
<path d="M13.1222 8.45075C13.2318 8.66856 13.2977 8.90491 13.3166 9.15128L13.8023 16.0119C13.8088 16.1059 13.8534 16.1935 13.9261 16.2553C13.9806 16.3016 14.0476 16.3306 14.1225 16.339L14.1999 16.3405L21.1676 15.9207C21.7334 15.8875 22.2882 16.0844 22.7005 16.4648C23.1128 16.8453 23.3461 17.3755 23.343 17.989C23.0331 22.5046 19.7163 26.2796 15.1988 27.2581C10.6813 28.2366 6.04514 26.1842 3.82227 22.231C3.22787 21.2119 2.82722 20.0972 2.64225 18.9686L2.58303 18.5449C2.53163 18.2276 2.50399 17.9072 2.5 17.5994L2.50389 17.2965C2.51675 12.5818 5.82695 8.50503 10.4851 7.40543L10.8048 7.33509L10.9768 7.30665C11.8775 7.18351 12.7637 7.65566 13.1222 8.45075ZM11.2705 9.09766L11.1652 9.10965L10.8796 9.17416C7.16908 10.0685 4.50775 13.2629 4.35995 17.0263L4.3535 17.3326C4.34461 17.5657 4.35312 17.799 4.38124 18.0472L4.41596 18.301C4.54015 19.3688 4.88494 20.4008 5.43643 21.3465C7.2704 24.6079 11.0834 26.2959 14.7988 25.4911C18.5141 24.6863 21.2421 21.5816 21.4948 17.9267C21.4948 17.8717 21.4717 17.8191 21.4308 17.7813C21.4035 17.7561 21.3699 17.739 21.3343 17.7314L21.28 17.7272L14.3238 18.1462C13.7367 18.1879 13.1569 17.9991 12.7125 17.6214C12.2682 17.2438 11.996 16.7086 11.9565 16.1375L11.4713 9.28271C11.4704 9.27135 11.4673 9.26027 11.446 9.21623C11.4144 9.14619 11.3456 9.10164 11.2705 9.09766ZM16.7787 2.50131C22.1356 2.65284 26.6286 6.50203 27.488 11.6761L27.5 11.8209L27.4972 12.0732C27.4671 12.4453 27.3172 12.7991 27.0681 13.0835C26.7552 13.4405 26.3096 13.6608 25.8235 13.6959L17.5167 14.2376C16.4519 14.2977 15.5369 13.5064 15.4676 12.4669L14.9123 4.31142L14.9186 4.12869L14.9462 3.9228C15.0203 3.55774 15.2105 3.22422 15.4906 2.97054C15.8424 2.65196 16.3092 2.48326 16.7787 2.50131ZM16.7641 4.31128L17.3139 12.3477C17.3171 12.3965 17.36 12.4336 17.4018 12.4313L25.6478 11.8919L25.6068 11.6669C24.7897 7.60025 21.2649 4.58053 17.0359 4.32416L16.7641 4.31128Z" fill="#EA7C69"/>
</svg>
