<svg width="30" height="30" viewBox="0 0 30 30" fill="none" xmlns="http://www.w3.org/2000/svg">
<path d="M17.4387 3.39562L17.6666 3.60813L18.5651 4.50656C18.8737 4.81371 19.2785 5.00309 19.7091 5.04563L19.895 5.05479H21.18C23.1847 5.05479 24.824 6.6225 24.9386 8.5986L24.945 8.81979V10.1035C24.945 10.5408 25.0957 10.9611 25.3677 11.2954L25.4916 11.4331L26.3901 12.3316C27.8045 13.7396 27.8677 15.9912 26.5719 17.4751L26.4029 17.6565L25.4924 18.5669C25.1862 18.8739 24.9967 19.279 24.9541 19.7091L24.945 19.8948V21.181C24.945 23.1857 23.3774 24.8239 21.4012 24.9384L21.18 24.9448H19.895C19.4593 24.9448 19.0384 25.0962 18.704 25.3689L18.5662 25.4932L17.6689 26.3892C16.2624 27.8053 14.0092 27.8681 12.5247 26.5718L12.3321 26.3915L11.4357 25.4951C11.1252 25.1868 10.7196 24.9967 10.2903 24.954L10.105 24.9448H8.81873C6.81481 24.9448 5.17588 23.3779 5.06137 21.4022L5.05498 21.181V19.8948C5.05498 19.4598 4.90335 19.0385 4.63075 18.7047L4.5066 18.5672L3.61019 17.6696C2.19448 16.2618 2.13168 14.0086 3.42795 12.5256L3.59707 12.3444L4.50472 11.4355C4.8134 11.1246 5.00318 10.7198 5.0458 10.2894L5.05498 10.1035V8.81979L5.06137 8.59863C5.17165 6.69592 6.6956 5.17149 8.59764 5.06118L8.81873 5.05479H10.105C10.5406 5.05479 10.9615 4.90368 11.2953 4.63221L11.4329 4.50859L12.3306 3.60963C13.7385 2.19528 15.9916 2.13301 17.4387 3.39562ZM13.8017 4.80327L13.6584 4.93349L12.7568 5.8363C12.1102 6.47828 11.2551 6.86213 10.3523 6.92165L10.105 6.92979H8.81873C7.83428 6.92979 7.02463 7.68498 6.9377 8.64783L6.92998 8.81979V10.1035C6.92998 11.015 6.59922 11.8914 6.00261 12.5765L5.83335 12.7585L4.92439 13.6687C4.23462 14.3616 4.19446 15.4562 4.80403 16.1987L4.9346 16.3423L5.83368 17.2427C6.47668 17.8872 6.86204 18.7438 6.9218 19.6473L6.92998 19.8948V21.181C6.92998 22.1661 7.68461 22.9752 8.64687 23.0621L8.81873 23.0698H10.105C11.0147 23.0698 11.8919 23.4009 12.5771 23.9976L12.7591 24.1669L13.6633 25.071C14.3611 25.7649 15.4559 25.8053 16.1978 25.1957L16.3413 25.0652L17.2424 24.1653C17.8883 23.5225 18.7438 23.1376 19.6475 23.078L19.895 23.0698H21.18C22.1658 23.0698 22.9754 22.3155 23.0623 21.353L23.07 21.181V19.8948C23.07 18.9837 23.401 18.105 23.9968 17.4229L24.1658 17.2419L25.0752 16.3325C25.765 15.6388 25.8049 14.5448 25.1962 13.8025L25.0658 13.659L24.1635 12.7566C23.5211 12.1096 23.1376 11.2553 23.0781 10.3512L23.07 10.1035V8.81979C23.07 7.83428 22.3149 7.02445 21.352 6.93752L21.18 6.92979H19.895C18.9835 6.92979 18.106 6.5993 17.4223 6.00309L17.2408 5.83395L16.3809 4.97174L16.3311 4.92545C15.6382 4.23574 14.5434 4.19536 13.8017 4.80327ZM18.8705 17.553C18.958 17.6405 19.033 17.7405 19.083 17.853C19.1205 17.9655 19.1455 18.0905 19.1455 18.2155C19.1455 18.3418 19.1205 18.453 19.083 18.5655C19.033 18.678 18.958 18.7905 18.8705 18.878C18.6955 19.053 18.458 19.153 18.208 19.153C17.958 19.153 17.7205 19.053 17.5455 18.878C17.458 18.7905 17.3955 18.678 17.3455 18.5655C17.2955 18.453 17.2705 18.3418 17.2705 18.2155C17.2705 18.0905 17.2955 17.9655 17.3455 17.853C17.3955 17.7405 17.458 17.6405 17.5455 17.553C17.8955 17.203 18.5205 17.203 18.8705 17.553ZM18.875 11.124C19.2078 11.4568 19.2381 11.9777 18.9658 12.3447L18.875 12.4498L12.45 18.8748C12.0839 19.2409 11.4903 19.2409 11.1242 18.8748C10.7914 18.542 10.7611 18.0212 11.0334 17.6541L11.1242 17.549L17.5492 11.124C17.9153 10.7579 18.5089 10.7579 18.875 11.124ZM12.4454 11.1285C12.6204 11.3023 12.7204 11.541 12.7204 11.791C12.7204 11.916 12.7079 12.0273 12.6579 12.141C12.6079 12.2535 12.5329 12.3535 12.4454 12.4535C12.3579 12.541 12.2579 12.6023 12.1454 12.6523C12.0329 12.7023 11.9079 12.7285 11.7829 12.7285C11.6579 12.7285 11.5454 12.7023 11.4329 12.6523C11.3204 12.6023 11.2079 12.541 11.1204 12.4535C11.0329 12.3535 10.9704 12.2535 10.9204 12.141C10.8704 12.0273 10.8454 11.916 10.8454 11.791C10.8454 11.6648 10.8704 11.541 10.9204 11.4285C10.9704 11.316 11.0329 11.2035 11.1204 11.1285C11.4829 10.7773 12.0954 10.7773 12.4454 11.1285Z" fill="#EA7C69"/>
</svg>
