<svg width="18" height="20" viewBox="0 0 18 20" fill="none" xmlns="http://www.w3.org/2000/svg">
<path d="M14.25 4.95C15.95 5.95 16.75 7.75 16.75 9.75C16.75 12.25 14.25 14.25 11.75 14.25H9.15L8.55 17.85C8.50325 18.0793 8.37758 18.2849 8.19486 18.4311C8.01214 18.5772 7.78395 18.6547 7.55 18.65H4.85C4.77501 18.6515 4.70064 18.6361 4.63239 18.605C4.56415 18.5739 4.50378 18.5278 4.45577 18.4702C4.40775 18.4126 4.37331 18.3449 4.355 18.2722C4.33669 18.1994 4.33498 18.1235 4.35 18.05L4.55 16.65M6.75 10.75H9.25C11.75 10.75 14.25 8.25 14.25 5.75C14.25 2.75 12.35 0.75 9.25 0.75H3.75C3.25 0.75 2.75 1.25 2.75 1.75L0.75 15.75C0.75 16.25 1.25 16.75 1.75 16.75H4.55L5.75 11.75C5.85 11.15 6.15 10.75 6.75 10.75Z" stroke="#ABBBC2" stroke-width="1.5" stroke-linecap="round" stroke-linejoin="round"/>
</svg>
